<svg width="910" height="255" viewBox="0 0 910 255" fill="none" xmlns="http://www.w3.org/2000/svg">
<path d="M130.736 248.693H86.9504V183.058C69.3795 182.86 53.7191 182.694 49.9045 182.782C49.653 181.078 49.8916 152.21 49.9045 148.743C56.313 148.527 69.8458 148.24 86.9504 148.18V16.7572H130.74V16.8133H146.227C164.335 16.8133 179.718 16.8004 191.942 16.7745C192.34 16.7745 192.716 16.7572 193.07 16.7572C204.784 17.132 216.214 20.4642 226.306 26.4461C238.686 33.4716 249.176 43.4184 256.868 55.4265C264.97 68.1034 269.429 84.806 269.429 102.458C269.634 119.341 265.294 135.966 256.868 150.579C239.553 179.138 211.587 183.403 196.451 183.403C194.946 183.403 193.442 183.365 191.938 183.285C180.008 183.339 164.842 183.365 146.867 183.365H141.314V183.554C138.735 183.554 135.099 183.554 130.74 183.516V248.691L130.736 248.693ZM187.807 148.708C194.274 148.797 200.633 147.044 206.149 143.653C211.664 140.262 216.109 135.372 218.969 129.548C227.673 113.29 227.673 89.4206 218.969 74.0233C210.213 58.5159 195.774 51.4569 186.062 51.4569C185.871 51.4569 185.673 51.4569 185.482 51.4569C178.82 51.472 170.825 51.4784 161.719 51.4784C148.644 51.4784 136.36 51.4612 131.673 51.4569H131.323V148.574L133.977 148.639C138.907 148.654 150.054 148.682 161.934 148.682C171.39 148.682 179.316 148.665 185.482 148.63C186.24 148.684 187.021 148.708 187.807 148.708Z" fill="#008ADD"/>
<path d="M287.45 248.689V82.6881H331.238V110.935C331.332 110.81 331.429 110.687 331.528 110.564C356.371 75.2041 389.433 82.6881 389.433 82.6881V120.859C389.433 120.859 341.822 113.973 331.238 163.043V248.691L287.45 248.689Z" fill="#008ADD"/>
<path d="M492.438 254.99C479.774 255.022 467.221 252.632 455.448 247.948C444.262 243.52 434.012 237.005 425.24 228.748C416.642 220.701 409.72 211.021 404.873 200.27C399.951 189.304 397.406 177.414 397.406 165.387C397.406 153.359 399.951 141.469 404.873 130.504C409.72 119.753 416.642 110.073 425.24 102.026C434.012 93.7695 444.262 87.2545 455.448 82.8253C479.221 73.4333 505.655 73.4333 529.428 82.8253C540.614 87.255 550.863 93.7699 559.636 102.026C568.233 110.074 575.156 119.753 580.003 130.504C584.925 141.469 587.47 153.359 587.47 165.387C587.47 177.414 584.925 189.304 580.003 200.27C575.156 211.021 568.233 220.7 559.636 228.748C550.864 237.004 540.614 243.519 529.428 247.948C517.655 252.632 505.102 255.022 492.438 254.99ZM492.438 113.68C462.903 113.674 438.883 136.866 438.883 165.374C438.883 193.882 462.903 217.065 492.438 217.065C521.973 217.065 546 193.882 546 165.374C546 136.866 521.971 113.674 492.438 113.674V113.68Z" fill="#008ADD"/>
<path d="M717.86 248.685V117.177H656.212V248.685H612.42V117.177H593.226V82.6884H761.646V82.9041V248.681L717.86 248.685ZM612.42 82.6884C612.42 82.6884 611.272 68.5143 612.42 62.083C613.567 55.6518 614.717 50.295 622.505 38.1488C630.294 26.0027 643.822 17.6212 643.822 17.6212C653.333 11.7763 663.612 7.2972 674.361 4.31434C689.916 0.159184 710.543 -1.72638 728.23 2.00376C767.986 10.3917 774.609 36.7055 759.351 54.0597C749.744 61.7573 733.71 62.1564 716.137 45.9608C711.033 40.8212 704.453 37.4157 697.323 36.2223C690.192 35.029 682.868 36.1078 676.379 39.3074C661.12 47.842 657.368 58.8556 656.214 68.8077C656.504 74.7103 656.214 82.6884 656.214 82.6884H612.42Z" fill="#008ADD"/>
<path d="M839.7 248.987C801.747 234.701 800.83 194.114 800.808 191.575V117.183H781.361V82.6972H800.808V28.4753H844.596V82.6972H894.575V117.183H844.596V191.305H844.613C853.355 234.308 897.025 213.412 897.025 213.412L909.988 241.175C897.127 249.515 882.147 253.963 866.837 253.988C857.565 253.978 848.371 252.284 839.7 248.987Z" fill="#008ADD"/>
<path d="M7.44556 82.6779V248.677H51.2332V82.6779H7.44556Z" fill="#41D400"/>
<path d="M28.7978 58.4218C44.7023 58.4218 57.5955 45.4788 57.5955 29.5127C57.5955 13.5466 44.7023 0.603531 28.7978 0.603531C12.8932 0.603531 0 13.5466 0 29.5127C0 45.4788 12.8932 58.4218 28.7978 58.4218Z" fill="#41D400"/>
</svg>
